# xmcd
#
# Track frame offsets: 
#        150
#        15104
#        30317
#        42890
#        55996
#        68883
#        83515
#        95608
#        109382
#        123449
#        135900
#        148222
#        165710
#        175810
#
# Disc length: 2588 seconds
#
# Revision: 0
# Processed by: cddbd v1.5.2PL0 Copyright (c) Steve Scherf et al.
# Submitted via: ExactAudioCopy v1.1
#
DISCID=b00a1a0e
DTITLE=Eden and John's East River String Band - Be Kind To A Man When 
DTITLE=He's Down
DYEAR=2011
DGENRE=Blues
TTITLE0=Gonna Tip Out Tonight
TTITLE1=So Sorry Dear
TTITLE2=Fare Thee Blues, Pt. 1
TTITLE3=Beaver Slide Rag
TTITLE4=Be Kind To A Man When He's Down
TTITLE5=Twelve Pound Daddy
TTITLE6=On The Banks Of The Kaney
TTITLE7=Swanee River
TTITLE8=How Long
TTITLE9=There's More Pretty Girls Than One
TTITLE10=Hy Patillion
TTITLE11=Black Dog Medley
TTITLE12=The Girl I Left Behind Me
TTITLE13=Oh Susana
EXTD=
EXTT0=
EXTT1=
EXTT2=
EXTT3=
EXTT4=
EXTT5=
EXTT6=
EXTT7=
EXTT8=
EXTT9=
EXTT10=
EXTT11=
EXTT12=
EXTT13=
PLAYORDER=
